With: Ilona Elkin, Nicolas Wright and Robin Wilcock

Karen (Ilona Elkin), een jonge verpleegster in een psychiatrische kliniek, heeft een verschrikkelijke dag. Haar ziekenhuis wordt overspoeld met nieuwe patiënten, die stuk voor stuk een chaotische indruk op haar maken. Viviane, een onlangs ontslagen patiënte, sprong de dag ervoor voor een naderende metro. Op de tekeningen die Viviane achter liet, ziet Karen demonen die op de ziekenhuismuren kruipen, hun ogen gloeien. Is dit een symptoom van een gestoorde geest of een toekomstvisie van dingen die staan te gebeuren? Ze heeft die dag avonddienst en is genoodzaakt de laatste metro van die nacht naar huis te nemen. Dan ineens, diep onder de grond tussen twee metrostations in, wordt er aan de noodrem getrokken. Het is een moment van berekening van occulte aanbidders en demonen die gedwongen zijn de metro-passagiers te confronteren met de Dag des Oordeels. Ieder voor zich zal zich af moeten vragen wie die kan vertrouwen en hoe in deze onheilspellende nacht te overleven.

In this unsettling and creepy thriller, Karen (Ilona Elkin), a young nurse who works in a psychiatric ward, boards the last subway train of the night only to have it stop suddenly in the middle of the tunnel. As those around her are brutally murdered, Karen and a handful of survivors must face supernatural forces, homicidal religious cult members, as well as their own fears and suspicions of Armageddon, in order to survive. 

General:

Complete name                    : End of the Line\End of the Line.avi
Format                           : AVI
Format/Info                      : Audio Video Interleave
File size                        : 1.37 GiB
Duration                         : 1h 30mn
Overall bit rate                 : 2 162 Kbps

Video:

Format                           : MPEG-4 Visual
Format profile                   : Simple@L3
Format settings, BVOP            : No
Format settings, QPel            : No
Format settings, GMC             : No warppoints
Format settings, Matrix          : Default (H.263)
Codec ID                         : XVID
Codec ID/Hint                    : XviD
Duration                         : 1h 30mn
Bit rate                         : 1 703 Kbps
Width                            : 704 pixels
Height                           : 396 pixels
Display aspect ratio             : 16:9
Frame rate                       : 25.000 fps
Color space                      : YUV
Chroma subsampling               : 4:2:0
Bit depth                        : 8 bits
Scan type                        : Progressive
Bits/(Pixel*Frame)               : 0.244
Stream size                      : 1.08 GiB (79%)
Writing library                  : XviD 1.1.2 (UTC 2006-11-01)

Audio:

Format                           : AC-3
Format/Info                      : Audio Coding 3
Mode extension                   : CM (complete main)
Codec ID                         : 2000
Duration                         : 1h 30mn
Bit rate mode                    : Constant
Bit rate                         : 448 Kbps
Channel(s)                       : 6 channels
Channel positions                : Front: L C R, Side: L R, LFE
Sampling rate                    : 48.0 KHz
Bit depth                        : 16 bits
Stream size                      : 291 MiB (21%)
Alignment                        : Aligned on interleaves
Interleave, duration             : 32 ms (0.80 video frame)
Interleave, preload duration     : 32 ms

